<?xml version="1.0" standalone="no"?>
<!DOCTYPE svg PUBLIC "-//W3C//DTD SVG 20010904//EN"
 "http://www.w3.org/TR/2001/REC-SVG-20010904/DTD/svg10.dtd">
<svg version="1.0" xmlns="http://www.w3.org/2000/svg"
 width="128.000000pt" height="128.000000pt" viewBox="0 0 128.000000 128.000000"
 preserveAspectRatio="xMidYMid meet">
<metadata>
Created by potrace 1.11, written by Peter Selinger 2001-2013
</metadata>
<g transform="translate(0.000000,128.000000) scale(0.100000,-0.100000)"
fill="#000000" stroke="none">
<path d="M1056 1239 c-166 -42 -282 -113 -401 -245 -100 -110 -108 -119 -191
-220 l-75 -90 -110 2 -111 1 -64 -80 c-35 -45 -62 -82 -60 -84 2 -2 12 -5 22
-8 119 -25 156 -34 162 -39 3 -4 -1 -28 -10 -53 -12 -32 -14 -53 -7 -70 10
-26 90 -110 131 -137 25 -16 29 -16 78 1 61 22 63 20 81 -76 20 -110 16 -108
84 -56 110 84 103 71 102 192 -1 59 2 111 8 118 6 7 55 50 110 95 207 173 291
258 345 348 45 77 87 180 96 241 3 20 8 39 10 43 2 3 7 38 10 78 l7 71 -58 -3
c-32 -2 -104 -15 -159 -29z m-131 -263 c38 -16 56 -43 57 -87 3 -112 -143
-140 -187 -36 -7 16 -10 39 -7 53 5 29 46 71 75 77 12 2 23 5 25 6 1 0 18 -5
37 -13z"/>
<path d="M103 318 c-38 -40 -81 -128 -88 -183 -18 -144 -23 -138 106 -121 73
10 146 43 194 87 46 44 40 60 -13 35 -54 -27 -111 -42 -164 -45 l-48 -3 0 38
c0 47 28 154 47 175 14 17 18 49 5 49 -4 0 -22 -15 -39 -32z"/>
</g>
</svg>
